<?xml version="1.0" encoding="utf-8"?>
<!-- Generator: Adobe Illustrator 22.0.0, SVG Export Plug-In . SVG Version: 6.00 Build 0)  -->
<svg version="1.1" id="图层_1" xmlns="http://www.w3.org/2000/svg" xmlns:xlink="http://www.w3.org/1999/xlink" x="0px" y="0px"
	 viewBox="0 0 512 512" style="enable-background:new 0 0 512 512;" xml:space="preserve">
<style type="text/css">
	.st0{fill:#0ECE5B;}
	.st1{fill:#07BF51;}
	.st2{fill:#07BF51;stroke:#FFFFFF;stroke-width:10;}
</style>
<path id="形状_1" class="st0" d="M254.3,507c-5.8,0-11.7-0.3-17.5-0.8c-64.8-5.9-124-41.1-158.4-94.1
	c-55.3-85.3-38.7-197.4,40.4-272.7l4.3-4c39-37.1,72.8-69.2,92.7-123.3c2-5.5,8.1-8.4,13.7-6.4c1.2,0.4,2.3,1.1,3.3,2
	c76.6,66.2,102.7,154.2,92.1,218.5c30.1-22.2,49.2-50.2,64.5-93.1c2-5.6,8.1-8.4,13.7-6.4c2,0.7,3.8,2.1,5,3.8
	c37.8,52.9,58.3,112.8,57.8,168.6c-0.1,30.5-7,60.7-20.3,88.2C410.7,458.9,333.8,507,254.3,507z"/>
<path id="椭圆_1_拷贝" class="st1" d="M459.9,343.8c-3.4,15-8.5,29.5-15.2,43.3C409.7,458.9,332.8,507,253.3,507
	c-5,0-10.1-0.2-15-0.6c-79-57.2-115.8-142-82.7-199.2c36.6-63.1,144.4-68.7,240.9-12.6C419.8,308.1,441.1,324.6,459.9,343.8z"/>
<circle id="椭圆_1" class="st2" cx="255.8" cy="365.9" r="70.5"/>
</svg>
