<?xml version="1.0" encoding="utf-8"?>
<!-- Generator: Adobe Illustrator 22.0.0, SVG Export Plug-In . SVG Version: 6.00 Build 0)  -->
<svg version="1.1" id="图层_1" xmlns="http://www.w3.org/2000/svg" xmlns:xlink="http://www.w3.org/1999/xlink" x="0px" y="0px"
	 viewBox="0 0 110.4 104" style="enable-background:new 0 0 110.4 104;" xml:space="preserve">
<style type="text/css">
	.st0{fill:#FAD580;}
	.st1{fill:#FCD57E;}
	.st2{fill:#CD9A2F;}
	.st3{fill:#E6B855;}
	.st4{fill:#FCD681;}
	.st5{fill:#FBD682;}
	.st6{fill:#CB9B33;}
	.st7{fill:#CB9A31;}
	.st8{fill:#E8BE60;}
	.st9{fill:#F7CD70;}
	.st10{fill:#FCF9ED;}
	.st11{fill:#CF9E36;}
	.st12{fill:#E1B24F;}
	.st13{fill:#DBAC46;}
	.st14{fill:#D6A63F;}
	.st15{fill:#D9AB45;}
	.st16{fill:#DEAF4A;}
	.st17{fill:#EFC569;}
	.st18{fill:#7E5715;}
	.st19{fill:#755011;}
</style>
<path class="st0" d="M82.7,26.9c-0.1,0.5-0.2,1.1-0.3,1.6c-0.3,1-0.6,2-0.9,3c0,0.2,0,0.4-0.1,0.6c-0.2,0.4-0.5,0.8-0.6,1.2
	c-0.6,2.6-1.3,3-3.8,2.2c-0.3-0.1-0.5-0.1-0.8-0.1c-0.2,0-0.4,0-0.5-0.1c-1.4-0.5-2.7-1.1-4.1-1.6c-0.2,0-0.4,0-0.6-0.1
	c-1.8-0.7-3.6-1.5-5.4-2.2c0,0,0,0,0,0c-0.2-0.1-0.4-0.2-0.6-0.3c-0.2,0-0.4-0.1-0.6-0.1c-0.7-0.3-1.3-0.6-2-0.9
	c-0.4-0.1-0.9-0.3-1.3-0.4c-1.2-0.4-2.4-0.9-3.6-1.3c-0.2,0-0.4,0-0.6-0.1c-1.2-1-2.3-1-3.5,0c-0.2,0-0.4,0-0.6,0.1
	c-0.7,0.2-1.3,0.5-2,0.7c-0.3,0.1-0.7,0.2-1,0.3c-1.2,0.5-2.4,1-3.7,1.5c-0.3,0-0.6,0.1-1,0.1c-0.2,0.1-0.4,0.2-0.6,0.3c0,0,0,0,0,0
	c-1.2,0.5-2.5,1.1-3.7,1.6c-0.7,0.2-1.5,0.5-2.2,0.7c-1.2,0.4-2.4,0.9-3.6,1.3c-0.3,0.1-0.7,0.2-1,0.4c-0.5,0.1-1,0.2-1.4,0.3
	c-2,0.6-2.7,0.2-3.2-1.9c-0.1-0.6-0.4-1.2-0.6-1.8c0-0.2-0.1-0.4-0.1-0.6c-0.3-1.2-0.6-2.4-1-3.6c0-0.2-0.1-0.4-0.1-0.7
	c-0.3-1-0.6-2-0.9-3c0-0.3-0.1-0.7-0.1-1c-0.1-0.2-0.2-0.4-0.3-0.7c0-0.2-0.1-0.4-0.1-0.7c-0.2-0.8-0.3-1.5-0.5-2.3
	c0.7,1.2,1.4,2.4,2.3,4c0.6-0.1,1.6-0.3,2.6-0.5c0.6-0.1,1.2,0,1.8,0.1c-0.1-0.7-0.2-1.3-0.3-2c-0.1-1.1-0.9-2.3,0.2-3.3
	c0.2,0,0.4,0,0.5,0.1c0,0.2,0,0.4,0,0.7c-0.8,1.6-0.2,2.8,1,4c0.2,0.2,0.4,0.4,0.7,0.6c2.7,2,5.6,2.2,8.6,0.7c0.2,0,0.5-0.1,0.7-0.1
	c0.1-0.1,0.2-0.1,0.3-0.2c0.4-0.1,0.8-0.2,1.2-0.4c0.5-0.2,0.9-0.4,1.4-0.6c0.5,1.1,1.3,1.4,2.5,1.2c1.1-0.2,2.2-0.2,3.2-0.1
	c1.4,0,2.8,0.2,4.2,0.2c1.5,0,3,0.1,4.5-0.1c0.7-0.1,1.3-0.8,2-1.2c0.2,0,0.4,0,0.7,0c0,0,0,0,0,0c0.2,0.2,0.5,0.4,0.7,0.6
	c0.4,0.1,0.8,0.2,1.2,0.4c0.1,0.1,0.2,0.1,0.3,0.2c0.2,0,0.5,0.1,0.7,0.1c3.2,1.7,6.2,1.1,9-0.7c1.3-0.8,1.8-3,1.2-4.5
	c0-0.2,0-0.4,0-0.6c0.2,0,0.4,0,0.5-0.1c0.2,1.7,0.3,3.5,0.5,5.4c0.6-0.4,1.1-0.7,1.7-1c0.2,0.2,0.4,0.5,0.6,0.6
	c0.5,0.3,1.1,0.6,1.6,1c0.3-0.5,0.6-0.9,0.8-1.4c0.3-0.8,0.5-1.5,0.7-2.3c0.4-1.8,0.8-3.5,1.2-5.3c0.2,0.5,0.6,1,0.6,1.5
	c0,0.6-0.2,1.2-0.3,1.7c-0.1,0.4-0.2,0.9-0.3,1.3c-0.2,0.8-0.4,1.5-0.7,2.3c-0.1,0.4-0.2,0.9-0.3,1.3c-0.2,0.9-0.4,1.8-0.6,2.6
	c0,0.1,0,0.2,0,0.3C83,26.2,82.9,26.5,82.7,26.9z"/>
<path class="st1" d="M45.5,97.1c-0.1,0-0.2-0.1-0.2,0c-0.7-0.6-1.3-1.1-2-1.7c-0.2-0.2-0.4-0.4-0.6-0.6c-1.8-1.4-3.6-2.8-5.3-4.2
	c-0.3-0.2-0.6-0.5-0.9-0.7c-1.2-1.1-2.3-2.3-3.6-3.2c-2-1.3-3-3.3-4-5.4c0-0.4-0.1-0.9-0.1-1.3c-0.5-2.5-1-5-1.5-7.6
	c0-0.1,0-0.2-0.1-0.4c-0.1-0.2-0.2-0.4-0.2-0.7c0-0.3,0-0.7-0.1-1c-0.3-1.4-0.6-2.9-0.9-4.3c0-0.2-0.1-0.4-0.1-0.7
	c-0.3-1.3-0.6-2.6-0.9-4c0-0.2,0-0.4,0-0.7c-0.4-2.1-0.9-4.2-1.3-6.3c0-0.2-0.1-0.4-0.1-0.7c-0.5-2.6-1.1-5.3-1.6-7.9
	c0-0.2-0.1-0.5-0.1-0.7c0.2-1.2,0.1-2.6,1.7-2.9c0.1,0.2,0.1,0.4,0.2,0.4c3,1.5,6,3,9,4.6c0.2,1.6,0.5,3.2,0.7,4.9
	c0.4,2.6,0.9,5.3,1.3,7.9c0,0.2,0,0.4,0,0.7c0,0.4,0,0.9,0,1.3c0.1,1.1,0.2,2.1,0.3,3.2c0.3,2.2,0.7,4.5,1,6.7
	c0.2,1.8,0.6,3.6,0.6,5.4c-0.1,4.9,2.9,8,6,11.2c1.8,2.4,3.7,4.8,5.5,7.2c1.6,2.2,3.2,4.3,4.8,6.5c-0.2,0-0.5,0-0.7,0.1
	c-0.1,0-0.2-0.1-0.3,0c-0.7-0.6-1.3-1.1-2-1.7c-0.1-0.1-0.2-0.2-0.3-0.3c-0.8-0.6-1.6-1.3-2.4-1.9c0,0,0,0,0,0
	C46.6,98,46.1,97.5,45.5,97.1z"/>
<path class="st1" d="M81.6,79.9c0,0.4-0.1,0.9-0.1,1.3c-1.1,1.6-2.2,3.3-3.5,4.8c-0.7,0.8-1.6,1.4-2.4,2.1c0,0.1-0.1,0.2-0.1,0.3
	c-0.6,0.5-1.3,0.9-1.9,1.4c0,0,0,0,0,0c-2,1.6-4,3.3-6,4.9c-0.2,0.2-0.4,0.4-0.6,0.6c-0.7,0.6-1.3,1.1-2,1.7c-0.1,0-0.2,0-0.2,0
	c-1.4,1.1-2.8,2.2-4.3,3.3c0,0.1-0.1,0.2-0.1,0.2c-0.7,0.6-1.3,1.1-2,1.7c-0.1,0-0.2,0-0.2,0c-0.2,0-0.5,0-0.7-0.1
	c1.6-2.2,3.2-4.3,4.8-6.5c2-2.7,4.1-5.5,6.1-8.2c0.4-0.6,0.9-1.1,1.3-1.7l0,0c0.2-0.3,0.4-0.6,0.7-1l0,0c1.7-1,2.6-2.5,2.9-4.3
	c0.4-2.7,0.7-5.5,1-8.3c0.5-3.4,0.9-6.8,1.4-10.2c0.2-2.4,0.5-4.8,0.7-7.2c0.2-0.2,0.6-0.4,0.6-0.6c0.2-1.4,0.3-2.9,0.4-4.3
	c0.1-0.8,0.2-1.5,0.4-2.3c3-1.6,5.9-3.1,8.9-4.7c0.4,0,0.8,0,1.2,0c0.4,0.4,0.7,0.9,1.1,1.3c0,0.2,0,0.4,0,0.7
	c-0.6,3-1.3,5.9-1.9,8.9c0,0.4-0.1,0.8-0.1,1.2c-0.3,1.1-0.6,2.3-0.8,3.4c0,0.2,0,0.4-0.1,0.7c-0.4,2.1-0.8,4.2-1.2,6.3
	c0,0.2-0.1,0.4-0.1,0.7c-0.3,1.4-0.6,2.9-0.9,4.3c0,0.3,0,0.7-0.1,1c-0.1,0.2-0.2,0.4-0.2,0.7c0,0.2-0.1,0.4-0.1,0.6
	C82.6,75.1,82.1,77.5,81.6,79.9z"/>
<path class="st2" d="M68.3,87.6c-2,2.7-4.1,5.4-6.1,8.2c-1.6,2.2-3.2,4.3-4.8,6.5c-0.6,0.6-1.3,1.1-1.9,1.7c-0.3,0-0.6,0-1-0.1
	c-0.5-0.5-1.1-1.1-1.6-1.6c-1.6-2.2-3.2-4.3-4.8-6.5c-1.8-2.4-3.6-4.8-5.5-7.2c-0.1-1.2-0.2-2.4-0.4-3.6c-0.4-1.9,0.4-2.7,2.4-2.4
	c1,0.1,2.1,0.3,3.1,0.3c4.6,0,9.2,0,13.8,0c1.7,0,3.4,0.4,4.5-1.3c1.3,1.2,2.4,2.2,3.4,3.3c0.2,0.2,0.2,0.7,0.3,1.1c0,0,0,0,0,0
	C69.2,86.5,68.8,87,68.3,87.6z"/>
<path class="st3" d="M56.4,31c0.2,0.1,0.4,0.1,0.6,0.2c0.2,0.1,0.5,0.2,0.7,0.3c0,0,0.1,0,0.1,0c0,0.1,0,0.2,0,0.3
	c-0.1,0.1-0.3,0.4-0.2,0.4c2.2,1.7,4.5,3.3,6.6,5c2.3,1.8,4.5,3.6,6.7,5.5c-0.1,0.4-0.1,0.9-0.3,1.7c-2.3-2.7-5.1-2-7.7-2
	c-7.3,0-14.5,0-21.8,0c0.1,0.1,0.1,0.3,0.2,0.4c-0.5,0.4-1,0.8-1.4,1.2c-0.2-0.4-0.4-0.9-0.6-1.3c0.1-0.1,0.2-0.2,0.3-0.3
	c0.3-0.2,0.7-0.4,1-0.7c2.4-2,4.9-4,7.3-5.9c1.7-1.4,3.5-2.8,5.2-4.2C54.2,31.3,55.3,31.2,56.4,31z"/>
<path class="st4" d="M107.2,45.7c-0.1,0.2-0.2,0.4-0.4,0.6c-5.5,3.1-11.3,5.7-17.5,8.3c0.1-1.7,0.2-2.8,0.3-4c0-0.3,0-0.7,0.1-1
	c0.3-1.1,0.6-2.2,0.9-3.3c0-0.2,0-0.4,0.1-0.7c1-0.9,2-1.8,3.1-2.7c0.9-0.7,2-1.3,3-1.9c0.4-0.1,0.8-0.3,1.2-0.4
	c0.5-0.3,1-0.6,1.4-0.9c0.4-0.1,0.8-0.3,1.2-0.4c2.5-1.2,5.1-2.4,7.6-3.6c0.1,0,0.2,0,0.3-0.1c0.6,0.3,1.3,0.5,1.9,0.8
	c0,0.1,0,0.3,0,0.4c-0.8,2.2-1.7,4.5-2.5,6.7c0,0.2-0.1,0.4-0.1,0.6C107.6,44.8,107.4,45.2,107.2,45.7z"/>
<path class="st4" d="M3.4,46.2C3.3,46,3.1,45.8,3,45.6c-0.2-0.4-0.4-0.9-0.7-1.3c0-0.2-0.1-0.4-0.1-0.6c-0.8-2.2-1.5-4.4-2.3-6.6
	c0-0.2,0-0.5,0-0.7c0.6-0.2,1.1-0.5,1.7-0.7c0.2,0,0.4,0.1,0.5,0.1c2.6,1.3,5.1,2.5,7.7,3.8c0.3,0,0.6,0.1,0.9,0.1
	c0.5,0.3,1,0.6,1.4,0.9c0.4,0.1,0.8,0.3,1.2,0.4c0.1,0.1,0.1,0.4,0.3,0.4c3.2,1.3,5.9,3,6.5,6.8c0,0.2,0,0.4,0.1,0.7
	c0.1,0.2,0.2,0.4,0.2,0.7c0,0.3,0.1,0.6,0.1,1c0.1,1.2,0.2,2.3,0.3,4C14.6,51.9,8.9,49.3,3.4,46.2z"/>
<path class="st5" d="M104.2,54.9c-0.1,0.3-0.2,0.7-0.3,1c-0.3,1.1-0.7,2.2-1,3.3c0,0.2,0,0.4-0.1,0.5c-1,0.8-2,1.7-3.1,2.3
	c-2.1,1.1-4.4,2-6.5,3.1c-0.5,0.2-0.8,0.6-1.2,1c-0.6,0.2-1.3,0.5-1.9,0.7c-0.6,0.2-1.2,0.2-1.7,0.5c-0.9,0.6-1.5,0.2-1.9-0.6
	c0-0.4,0-0.8,0-1.3c0.3-1.1,0.6-2.2,0.9-3.4c0-0.2,0.1-0.4,0.1-0.7c0.1-0.2,0.2-0.4,0.2-0.7c0-0.2,0-0.4,0.1-0.7
	c0.2-0.8,0.5-1.5,0.7-2.3c0.3-0.3,0.7-0.7,1-1c1.2-0.7,2.5-1.3,3.7-2c0.1,0,0.2,0,0.3,0c3.1-1.5,6.2-3,9.3-4.5
	c0.2,0,0.4-0.1,0.5-0.1c0.7-0.1,1.3-0.2,2-0.3c0,0,0,0,0,0C104.9,51.6,104.6,53.2,104.2,54.9z"/>
<path class="st5" d="M7.4,59.7c0-0.2,0-0.4-0.1-0.5c-0.3-1.2-0.7-2.4-1-3.6c-0.1-0.2-0.2-0.4-0.3-0.7c-0.3-1.7-0.7-3.3-1-5
	c0,0,0,0,0,0c0.7,0.1,1.3,0.2,2,0.3c0.2,0,0.4,0.1,0.5,0.1c0.2,0.2,0.3,0.4,0.6,0.5c3.6,1.8,7.3,3.5,10.9,5.2c1.7,0.8,3.3,1.8,3.3,4
	c0,0.5,0.3,0.9,0.5,1.3c0,0.2,0.1,0.4,0.1,0.7c0.3,1.1,0.6,2.2,0.9,3.4c0,0.4,0,0.8,0,1.2c-0.5,0.8-1,1.1-2,0.6
	c-0.5-0.3-1.1-0.4-1.7-0.5c-0.1,0-0.2-0.1-0.3-0.1c-0.2-0.2-0.5-0.4-0.7-0.5c-0.5-0.2-1-0.3-1.5-0.5c-0.6-0.4-1.1-0.9-1.7-1.2
	C13,63,9.8,62.1,7.4,59.7z"/>
<path class="st5" d="M100.4,66.4c0,0.2-0.1,0.4-0.1,0.7c-0.4,1.2-0.9,2.4-1.3,3.6c-0.1,0.3-0.2,0.7-0.3,1c-0.8,1.4-1.6,2.8-2.4,4.2
	c-0.1,0-0.2,0-0.3,0c-1.3,0.7-2.6,1.3-4,2c-0.1,0-0.2,0-0.3,0.1c-1,0.5-2,1-3.1,1.5c-0.1,0-0.2,0-0.3,0.1c-1.4,0.4-2.9,0.9-4.3,1.3
	c0,0,0,0,0,0c0.3-3.8,0.5-7.6,2.7-10.9c0.1,0,0.2,0,0.3-0.1c0.3-0.2,0.5-0.4,0.8-0.6c0.2,0,0.4-0.1,0.5-0.1c0.3-0.2,0.5-0.4,0.8-0.6
	c0.4-0.1,0.8-0.3,1.2-0.4c0.3-0.2,0.5-0.4,0.8-0.6c0.7-0.3,1.4-0.5,2.2-0.8c2.4-0.6,4.4-2.6,7.2-2.6
	C100.5,65.3,100.4,65.8,100.4,66.4z"/>
<path class="st5" d="M14.2,76c-0.1,0-0.2,0-0.3,0c-0.8-1.4-1.6-2.8-2.4-4.2c-0.1-0.3-0.2-0.7-0.3-1c-0.5-1.2-1-2.5-1.6-3.7
	c0-0.2,0-0.3,0-0.5c0-0.6,0.1-1.2,0.1-2.1c0.8,0.2,1.5,0.3,2.1,0.6c1.7,0.7,3.3,1.4,4.9,2.2c0.7,0.3,1.4,0.5,2.2,0.8
	c0.3,0.2,0.5,0.4,0.8,0.6c0.4,0.1,0.8,0.3,1.2,0.4c0.3,0.2,0.5,0.4,0.8,0.6c0.2,0,0.4,0.1,0.5,0.1c0.3,0.2,0.5,0.4,0.8,0.5
	c0.1,0,0.2,0.1,0.3,0.1c0.6,1.4,1.2,2.7,1.7,4.2c0.4,1.1,0.6,2.3,0.9,3.4c0,0.2,0,0.4,0.1,0.6c0,0.9,0,1.8,0,2.7c0,0,0,0,0,0
	c-0.6-0.2-1.3-0.2-1.8-0.5c-2-0.8-4.1-1.7-6.1-2.5c0,0,0,0,0,0C16.9,77.3,15.5,76.6,14.2,76z"/>
<path class="st6" d="M39.6,42.4c-0.1,0.1-0.2,0.2-0.3,0.3c-0.4,0.2-0.8,0.5-1.2,0.7c-1.8,1.3-3.6,2.7-5.5,4c-3-1.5-6-3-9-4.6
	c-0.1-0.1-0.1-0.3-0.2-0.4c0.9-0.4,1.9-0.9,2.8-1.3c0.1,0.1,0.1,0,0.2,0c1.1-0.4,2.1-0.8,3.2-1.3c0.2,0,0.3,0,0.5-0.1
	c2.3-0.9,4.5-1.7,6.8-2.6c0.2,0,0.3-0.1,0.5-0.1c0.7-0.3,1.4-0.6,2.2-0.9c0.4-0.1,0.7-0.2,1.1-0.4c0.2-0.1,0.4-0.2,0.5-0.3
	c0.2,0,0.3,0,0.5,0c0.2-0.1,0.4-0.2,0.5-0.3c0.2,0,0.3,0,0.5-0.1c0.5-0.2,1-0.4,1.5-0.6c0.2,0,0.3-0.1,0.5-0.1
	c0.5-0.2,0.9-0.4,1.4-0.6c0.2-0.1,0.4-0.1,0.6-0.2c0.4-0.2,0.9-0.4,1.3-0.5c0,0,0,0,0,0c1.1-0.4,2.1-0.8,3.2-1.2
	c0.5-0.1,1-0.3,1.4-0.4c0.2,0,0.4,0,0.7,0.1c-1.7,1.4-3.5,2.8-5.2,4.2c-2.4,2-4.9,4-7.3,5.9C40.3,41.9,39.9,42.1,39.6,42.4z"/>
<path class="st7" d="M70.9,42.7c-2.2-1.8-4.5-3.7-6.7-5.5c-2.2-1.7-4.4-3.4-6.6-5c0,0,0.2-0.3,0.2-0.4c1.9,0.6,3.7,1.2,5.6,1.8
	c0.1,0.1,0.2,0.2,0.3,0.2c0.7,1.3,1.2,1.5,2.7,1c0.2,0,0.4,0,0.7,0l0.1,0.1c0,0,0.1,0,0.1,0c0.1,0.1,0.1,0.2,0.2,0.3
	c2.3,0.9,4.6,1.7,6.9,2.6c0.1,0,0.2,0.1,0.3,0.1c0.5,0.2,1.1,0.4,1.6,0.6l0,0c1.7,0.6,3.5,1.3,5.2,1.9l0,0c0.3,0.1,0.6,0.2,1,0.4
	c0.3,0.1,0.7,0.2,1,0.3c0.3,0.3,0.7,0.7,1,0.9c0.6,0.4,1.3,0.7,1.9,1c-3,1.6-5.9,3.1-8.9,4.7C75.3,46,73.1,44.3,70.9,42.7z"/>
<path class="st8" d="M56.9,1.8C57,2,57.1,2.2,57.2,2.4c0.2,0.3,0.3,0.5,0.5,0.8c0.1,0.2,0.3,0.4,0.4,0.6c0.8,1.2,1.5,2.4,2.3,3.6
	c0,0,0,0,0,0C60.6,8,60.8,8.5,61,9.1c-1,0.2-2,0.5-3,0.6c-1.6,0-3.1-0.2-4.7-0.2c-1.4,0-2.8,0-4.2,0c0.2-0.7,0.4-1.3,0.7-2
	c0,0,0,0,0,0c0.8-1.2,1.5-2.4,2.3-3.6c0.1-0.1,0.2-0.2,0.3-0.4c0.3-0.3,0.6-0.5,0.8-0.8C54.7,0.1,54.7,0.1,56.9,1.8z"/>
<path class="st9" d="M32.5,17.9c-1.1,1-0.3,2.2-0.2,3.3c0,0.7,0.2,1.3,0.3,2c-0.6,0-1.2-0.1-1.8-0.1c-1,0.1-2,0.4-2.6,0.5
	c-0.9-1.6-1.6-2.8-2.3-4c0-0.2,0-0.4-0.1-0.6c0.1-0.5,0.4-1.1,0.3-1.6c-0.2-0.7-0.6-1.4-0.9-2c0.2-0.2,0.5-0.4,0.7-0.6
	c0.3,0.1,0.7,0.2,1,0.3c0.4,0.1,0.9,0.2,1.3,0.3c0.4,0.1,0.9,0.2,1.3,0.4c0.9,0.4,1.8,0.8,2.7,1.2c0.1,0.1,0.2,0.1,0.3,0.1
	C32.3,17.3,32.4,17.6,32.5,17.9z"/>
<path class="st9" d="M84.8,14.7c-0.4,1.8-0.8,3.6-1.2,5.3c-0.2,0.8-0.4,1.6-0.7,2.3c-0.2,0.5-0.5,1-0.8,1.4c-0.5-0.3-1.1-0.6-1.6-1
	c-0.2-0.1-0.4-0.4-0.6-0.6c-0.6,0.4-1.1,0.7-1.7,1c-0.2-1.9-0.3-3.7-0.5-5.4c0.1-0.3,0.1-0.6,0.2-0.9c0.2,0,0.4,0,0.6-0.1
	c0.4-0.2,0.9-0.4,1.3-0.6c0.3-0.2,0.7-0.4,1-0.7c0.4-0.1,0.9-0.2,1.3-0.4C83,15.1,83.9,14.9,84.8,14.7z"/>
<path class="st5" d="M49.8,7.4c-0.2,0.7-0.4,1.3-0.7,2c-0.7,1-1.4,1.9-2,2.9c-0.2,0.3-0.2,0.8,0,1c0.5,0.9,1.2,1.8,1.8,2.7
	c0.9,2.7-0.4,4.7-2,6.6c-0.5,0.2-0.9,0.4-1.4,0.6c0.8-1.1,1.6-2.1,2.2-3.2c1.2-2,1.1-3.5-0.5-5.2c-0.7-0.8-1.3-1.6-0.6-2.6
	C47.6,10.5,48.7,9,49.8,7.4z"/>
<path class="st5" d="M64,22.6c-0.2,0-0.4,0-0.7,0c-1.5-1.9-2.9-3.9-2-6.6c1.6-1.9,2.5-3.9,0.4-6c-0.1-0.1-0.1-0.2-0.2-0.3
	c0-0.1,0-0.2,0-0.2c0,0,0.1-0.1,0.1-0.1c0.7,0.9,1.5,1.8,2,2.9c0.2,0.6,0.1,1.6-0.3,2.1c-2.5,3.4-1.8,4.4,0.1,7.3
	C63.7,21.9,63.8,22.2,64,22.6z"/>
<path class="st5" d="M56.9,1.8c-2.2-1.8-2.2-1.8-3.7,0.8c-0.2,0.3-0.5,0.5-0.8,0.8c0.3-0.7,0.5-1.6,1-2.2c0.5-0.6,1.4-1.4,1.9-1.2
	C56,0.2,56.4,1.2,56.9,1.8z"/>
<path class="st8" d="M74.2,37.7c-2.3-0.9-4.6-1.7-6.9-2.6c0.1,0,0.2-0.1,0.3-0.1c0.4,0.1,0.9,0.3,1.3,0.4c0.2,0.1,0.5,0.2,0.7,0.3
	c0.1,0.1,0.2,0.1,0.2,0.1c0.1,0.1,0.3,0.2,0.4,0.2c0.2,0,0.4,0.1,0.5,0.1c0.1,0.1,0.3,0.2,0.4,0.3c0.1,0,0.2,0.1,0.3,0.1
	c0.2,0.1,0.5,0.2,0.7,0.3c0.1,0.1,0.2,0.1,0.3,0.1c0.2,0.1,0.5,0.2,0.7,0.3c0.1,0,0.2,0.1,0.2,0C73.7,37.3,73.9,37.5,74.2,37.7z"/>
<path class="st8" d="M80.7,39.8c0.2,0.2,0.5,0.4,0.7,0.6c-1.7-0.6-3.5-1.3-5.2-1.9c0.5,0.1,1.1,0.2,1.6,0.4c0.3,0.1,0.6,0.2,0.9,0.3
	c0.1,0.1,0.3,0.1,0.4,0.2c0.2,0,0.4,0.1,0.6,0.1c0.1,0.1,0.3,0.2,0.4,0.2C80.3,39.7,80.5,39.7,80.7,39.8z"/>
<path class="st8" d="M86,41.7c0.5,0.4,1.1,0.9,1.6,1.3c-0.4,0-0.8,0-1.2,0c-0.7-0.3-1.3-0.6-1.9-1c-0.4-0.2-0.7-0.6-1-0.9
	c0.7,0.2,1.3,0.4,2,0.5C85.6,41.7,85.8,41.7,86,41.7z"/>
<path class="st5" d="M52.1,3.8c-0.8,1.2-1.5,2.4-2.3,3.6C50.6,6.2,51.3,5,52.1,3.8z"/>
<path class="st5" d="M60.4,7.4c-0.8-1.2-1.5-2.4-2.3-3.6C58.9,5,59.6,6.2,60.4,7.4z"/>
<path class="st0" d="M25.1,18c0-0.9,0-1.8,0-2.7c0.3,0.7,0.8,1.3,0.9,2c0.1,0.5-0.2,1.1-0.3,1.6c-0.1,0-0.2,0-0.3,0
	C25.3,18.6,25.2,18.3,25.1,18z"/>
<path class="st10" d="M9.7,67c0.5,1.2,1,2.5,1.6,3.7C10.7,69.5,10.2,68.2,9.7,67z"/>
<path class="st8" d="M66.3,34.8c-1.5,0.5-2,0.3-2.7-1c0.3,0,0.6,0,0.9,0c0.1,0.1,0.3,0.1,0.4,0.2c0.4,0.1,0.8,0.3,1.3,0.4
	C66.3,34.6,66.3,34.7,66.3,34.8z"/>
<path class="st10" d="M40.8,33.1c1.2-0.5,2.5-1.1,3.7-1.6C43.3,32,42.1,32.5,40.8,33.1z"/>
<path class="st10" d="M32,16.9c-0.9-0.4-1.8-0.8-2.7-1.2C30.3,16.1,31.1,16.5,32,16.9z"/>
<path class="st10" d="M58.3,102.3c0.7-0.6,1.3-1.1,2-1.7C59.7,101.2,59,101.7,58.3,102.3z"/>
<path class="st10" d="M83.1,25.5c0.2-0.9,0.4-1.8,0.6-2.6C83.6,23.8,83.4,24.7,83.1,25.5z"/>
<path class="st10" d="M49.9,100.6c0.7,0.6,1.3,1.1,2,1.7C51.2,101.7,50.5,101.2,49.9,100.6z"/>
<path class="st10" d="M64.9,97c0.7-0.6,1.3-1.1,2-1.7C66.2,95.9,65.6,96.5,64.9,97z"/>
<path class="st10" d="M43.3,95.3c0.7,0.6,1.3,1.1,2,1.7C44.6,96.5,43.9,95.9,43.3,95.3z"/>
<path class="st5" d="M61,9.1c-0.2-0.5-0.4-1.1-0.6-1.6c0.4,0.7,0.9,1.3,1.3,2c0,0-0.1,0.1-0.1,0.1c-0.1,0-0.2,0-0.2,0
	C61.3,9.3,61.1,9.2,61,9.1z"/>
<path class="st10" d="M39.5,36.2c-0.7,0.3-1.4,0.6-2.2,0.9C38,36.8,38.7,36.5,39.5,36.2z"/>
<path class="st10" d="M80.8,15.7c-0.3,0.2-0.7,0.4-1,0.7c-0.1,0-0.2-0.1-0.3-0.1C79.9,16.1,80.4,15.9,80.8,15.7z"/>
<path class="st10" d="M99.4,39.8c-0.5,0.3-1,0.6-1.4,0.9C98.4,40.4,98.9,40.1,99.4,39.8z"/>
<path class="st10" d="M12.2,40.7c-0.5-0.3-1-0.6-1.4-0.9C11.3,40.1,11.8,40.4,12.2,40.7z"/>
<path class="st8" d="M75.4,37.8c0.2,0.2,0.5,0.4,0.7,0.6c-0.5-0.2-1.1-0.4-1.6-0.6c0.1,0,0.2-0.1,0.3-0.1
	C75.1,37.7,75.2,37.8,75.4,37.8z"/>
<path class="st10" d="M47.8,33.1c-0.4,0.2-0.9,0.4-1.3,0.5C47,33.5,47.4,33.3,47.8,33.1z"/>
<path class="st0" d="M79.5,16.2c0.1,0,0.2,0.1,0.3,0.1c-0.4,0.2-0.9,0.4-1.3,0.6C78.8,16.7,79.1,16.5,79.5,16.2z"/>
<path class="st10" d="M74.9,37.7c-0.1,0-0.2,0.1-0.3,0.1c-0.1,0-0.2-0.1-0.3-0.1c-0.2-0.2-0.5-0.4-0.7-0.6
	C73.9,37.3,74.4,37.5,74.9,37.7z"/>
<path class="st10" d="M46,33.8c-0.5,0.2-0.9,0.4-1.4,0.6C45,34.2,45.5,34,46,33.8z"/>
<path class="st10" d="M44,34.5c-0.5,0.2-1,0.4-1.5,0.6C43.1,34.9,43.5,34.7,44,34.5z"/>
<path class="st10" d="M82.7,26.9c0.1-0.3,0.2-0.7,0.4-1C83,26.2,82.9,26.5,82.7,26.9z"/>
<path class="st10" d="M26.4,22.6c0.1,0.2,0.2,0.4,0.3,0.7C26.6,23,26.5,22.8,26.4,22.6z"/>
<path class="st5" d="M64.7,23.2c-0.2-0.2-0.5-0.4-0.7-0.6C64.2,22.8,64.5,23,64.7,23.2z"/>
<path class="st10" d="M20.5,49.6c-0.1-0.2-0.2-0.4-0.2-0.7C20.3,49.2,20.4,49.4,20.5,49.6z"/>
<path class="st5" d="M57.7,3.1c-0.2-0.3-0.3-0.5-0.5-0.8C57.3,2.6,57.5,2.9,57.7,3.1z"/>
<path class="st10" d="M73.2,37.1c-0.2-0.1-0.5-0.2-0.7-0.3C72.7,36.9,73,37,73.2,37.1z"/>
<path class="st10" d="M69.6,35.7c-0.2-0.1-0.5-0.2-0.7-0.3C69.1,35.6,69.4,35.6,69.6,35.7z"/>
<path class="st10" d="M66.3,34.8c0-0.1,0-0.2-0.1-0.3c0.2,0.1,0.5,0.2,0.7,0.3C66.7,34.8,66.5,34.8,66.3,34.8z"/>
<path class="st10" d="M72.2,36.7c-0.2-0.1-0.5-0.2-0.7-0.3C71.8,36.5,72,36.6,72.2,36.7z"/>
<path class="st10" d="M44.6,31.5c0.2-0.1,0.4-0.2,0.6-0.3C45,31.3,44.8,31.4,44.6,31.5z"/>
<path class="st10" d="M65,31.2c0.2,0.1,0.4,0.2,0.6,0.3C65.4,31.4,65.2,31.3,65,31.2z"/>
<path class="st10" d="M57.7,31.4c-0.2-0.1-0.5-0.2-0.7-0.3C57.3,31.2,57.5,31.3,57.7,31.4z"/>
<path class="st10" d="M70.2,36c-0.1-0.1-0.3-0.2-0.4-0.2C70,35.9,70.1,36,70.2,36z"/>
<path class="st10" d="M71.2,36.4c-0.1-0.1-0.3-0.2-0.4-0.3C70.9,36.2,71.1,36.3,71.2,36.4z"/>
<path class="st10" d="M67.6,35c-0.1,0-0.2,0.1-0.3,0.1c-0.1-0.1-0.1-0.2-0.2-0.3C67.3,34.9,67.4,35,67.6,35z"/>
<path class="st10" d="M65,34c-0.1-0.1-0.3-0.1-0.4-0.2C64.7,33.9,64.8,34,65,34z"/>
<path class="st10" d="M41.1,35.5c-0.2,0.1-0.4,0.2-0.5,0.3C40.8,35.7,40.9,35.6,41.1,35.5z"/>
<path class="st10" d="M44.2,23.6c-0.1,0.1-0.2,0.1-0.3,0.2C44,23.7,44.1,23.6,44.2,23.6z"/>
<path class="st10" d="M79.1,39.3c-0.1-0.1-0.3-0.1-0.4-0.2C78.9,39.2,79,39.2,79.1,39.3z"/>
<path class="st10" d="M80.1,39.7c-0.1-0.1-0.3-0.2-0.4-0.2C79.9,39.5,80,39.6,80.1,39.7z"/>
<path class="st10" d="M42.1,35.2c-0.2,0.1-0.4,0.2-0.5,0.3C41.8,35.4,41.9,35.3,42.1,35.2z"/>
<path class="st10" d="M66.3,23.8c-0.1-0.1-0.2-0.1-0.3-0.2C66.1,23.6,66.2,23.7,66.3,23.8z"/>
<path class="st9" d="M61.4,16c-0.9,2.7,0.5,4.6,2,6.6c-0.7,0.4-1.3,1.1-2,1.2c-1.5,0.2-3,0.1-4.5,0.1c-1.4,0-2.8-0.2-4.2-0.2
	c-1.1,0-2.2,0-3.2,0.1c-1.2,0.2-2-0.1-2.5-1.2c1.6-1.9,2.9-3.9,2-6.6C53,16,57.2,16,61.4,16z"/>
<path class="st11" d="M69.6,85.9c-0.1-0.4-0.1-0.8-0.3-1.1c-1.1-1.1-2.2-2.1-3.4-3.3c-1.1,1.7-2.9,1.3-4.5,1.3c-4.6,0-9.2,0-13.8,0
	c-1,0-2.1-0.1-3.1-0.3c-2-0.3-2.7,0.5-2.4,2.4c0.2,1.2,0.3,2.4,0.4,3.6c-3-3.2-6-6.3-6-11.2c0-1.8-0.4-3.6-0.6-5.4
	c1.2-0.4,2.3-0.8,3.5-1.2c0,0.3-0.1,0.9,0.1,1.4c0.1,0.3,0.3,1.5,1.1,0.5c0.3,0.9,0.7,0.6,1.2,0.1c0.7-0.8,1.3-1.5,1.8-2.2
	c1.1,2.1,2.2,4.1,3.2,6.2c-0.7,0.3-1.4,0.6-2,1.1c-0.2,0.2-0.4,0.7-0.4,1c0,0.2,0.5,0.4,0.7,0.5c2.3,0.1,4.7,0.2,7,0.2
	c1.7,0,3.4-0.1,5.1-0.1c2.5,0,4.9,0,7.4-0.1c0.3,0,0.7-0.3,0.7-0.4c0-0.3-0.1-0.8-0.4-1c-0.7-0.5-1.4-0.8-2-1.1
	c1.1-2.1,2.1-4.1,3.2-6.1c0.8,0.9,1.6,1.8,2.6,3c0.2-0.6,0.3-0.9,0.5-1.2c0.5-0.6,1.1-1.2,1.3-1.5c1.2,0.5,2.3,1,3.4,1.5
	c-0.3,2.8-0.6,5.5-1,8.3c-0.3,1.8-1.2,3.3-2.9,4.3c-0.1,0-0.1-0.1-0.3-0.3c0.2,0.2,0.2,0.2,0.3,0.3C70.1,85.3,69.9,85.6,69.6,85.9z"
	/>
<path class="st12" d="M70.9,42.7c2.2,1.7,4.4,3.3,6.6,5c-0.1,0.8-0.2,1.5-0.4,2.3c-4.2-0.3-8.4-0.7-12.7-1c0.4,2,0.8,3.6,1.2,5.3
	c-0.1,0.2-0.2,0.4-0.2,0.6c-0.6-1.5-1.1-3-1.7-4.4c-2.8-5.8-11.1-5.9-14.7-2.9c-2.2,1.8-3.2,4.2-4.1,6.7c0-0.7-0.1-1.3,0-1.9
	c0.1-0.8,0.4-1.6,0.5-2c-3,0.1-5.8,0.4-8.5,0.3c-1.6,0-2.7,0.4-3.6,1.7c-0.2-1.6-0.5-3.2-0.7-4.9c1.8-1.3,3.6-2.7,5.5-4
	c0.4-0.3,0.8-0.5,1.2-0.7c0.2,0.4,0.4,0.9,0.6,1.3c0.5-0.4,1-0.8,1.4-1.2c-0.1-0.1-0.1-0.3-0.2-0.4c7.3,0,14.5,0,21.8,0
	c2.6,0,5.4-0.6,7.7,2C70.8,43.5,70.9,43.1,70.9,42.7z"/>
<path class="st13" d="M33.3,52.2c0.8-1.3,2-1.7,3.6-1.7c2.8,0.1,5.6-0.2,8.5-0.3c-0.1,0.5-0.4,1.2-0.5,2c-0.1,0.6,0,1.3,0,1.9
	c-0.5,2.9,0,5.9-1.5,8.6c-0.2,0.1-0.5,0.3-0.7,0.4c0.1-0.5,0.1-1.1,0.3-1.6c0.5-1.6,0.3-1.8-1.4-1.8c-2.3,0.1-4.6,0.2-6.9,0.3
	C34.2,57.5,33.8,54.9,33.3,52.2z"/>
<path class="st14" d="M34.6,60.1c2.3-0.1,4.6-0.3,6.9-0.3c1.7,0,1.8,0.2,1.4,1.8c-0.1,0.5-0.2,1.1-0.3,1.6c0,0.2,0,0.4-0.1,0.6
	c-0.1,0.1-0.2,0.3-0.3,0.4c0,0.1,0,0.2,0,0.3c-1,0.6-1.1,1.1-0.3,1.6c-0.4,2.2-0.7,4.4-1.1,6.6c-0.9,1-1-0.2-1.1-0.5
	c-0.2-0.5-0.1-1.1-0.1-1.4c-1.2,0.4-2.4,0.8-3.5,1.2c-0.3-2.2-0.7-4.5-1-6.7c-0.1-1.1-0.2-2.1-0.3-3.2c0.3-0.5,1.2-0.9,0-1.3
	C34.6,60.6,34.6,60.4,34.6,60.1z"/>
<path class="st10" d="M25.7,65.4c-0.3-1.3-0.6-2.6-0.9-4C25.1,62.8,25.4,64.1,25.7,65.4z"/>
<path class="st13" d="M34.6,60.8c1.2,0.4,0.3,0.9,0,1.3C34.6,61.7,34.6,61.2,34.6,60.8z"/>
<path class="st10" d="M27,72c-0.1-0.2-0.2-0.4-0.2-0.7C26.8,71.6,26.9,71.8,27,72z"/>
<path class="st14" d="M74.2,72.4c-1.1-0.5-2.2-0.9-3.4-1.5c-0.2,0.3-0.8,0.9-1.3,1.5c-0.5-2.5-1-5-1.6-7.5c0.1-0.4,0.3-0.8,0.2-1.1
	c-0.1-0.7-0.5-1.3-0.6-2c-0.1-0.5,0.1-1.3,0.4-1.6c0.3-0.3,1-0.2,1.5,0c0.6,0.2,1.1,0.7,1.6,1c0.2-0.1,0.3-0.1,0.4-0.2
	c1.9-1.2,2.3-1.1,3.4,0.8c0.1,0.2,0.5,0.3,0.8,0.4C75.1,65.5,74.6,68.9,74.2,72.4z"/>
<path class="st15" d="M75.5,62.1c-0.3-0.1-0.7-0.2-0.8-0.4c-1.2-1.9-1.5-2-3.4-0.8c-0.1,0.1-0.2,0.1-0.4,0.2c-0.5-0.3-1-0.8-1.6-1
	c-0.5-0.2-1.2-0.3-1.5,0c-0.3,0.3-0.5,1.1-0.4,1.6c0.1,0.7,0.5,1.3,0.6,2c0.1,0.3-0.1,0.7-0.2,1.1c-0.4-0.7-0.8-1.3-1.1-2
	c-0.3-1-0.6-2.1-0.9-3.1c0-1.4,0.8-2.9-0.4-4.2c0-0.2,0-0.5,0-0.7c0.1-0.2,0.2-0.4,0.2-0.6c2.9-0.2,5.8-0.5,8.6-0.6
	c0.6,0,1.3,0.8,1.9,1.3C76,57.3,75.8,59.7,75.5,62.1z"/>
<path class="st16" d="M76.2,54.9c-0.6-0.4-1.3-1.3-1.9-1.3c-2.9,0.1-5.8,0.4-8.6,0.6c-0.4-1.7-0.7-3.3-1.2-5.3
	c4.3,0.3,8.5,0.7,12.7,1c-0.1,1.4-0.2,2.9-0.4,4.3C76.8,54.5,76.4,54.7,76.2,54.9z"/>
<path class="st11" d="M68.3,87.6c0.4-0.6,0.9-1.1,1.3-1.7C69.2,86.5,68.8,87,68.3,87.6z"/>
<path class="st10" d="M83.4,71.4c-0.1,0.2-0.2,0.4-0.2,0.7C83.3,71.8,83.4,71.6,83.4,71.4z"/>
<path class="st12" d="M39.6,42.4c0.3-0.2,0.7-0.4,1-0.7C40.3,41.9,39.9,42.1,39.6,42.4z"/>
<path class="st10" d="M87.4,61.5c0.1-0.2,0.2-0.4,0.2-0.7C87.5,61,87.5,61.2,87.4,61.5z"/>
<path class="st10" d="M22.9,62.1c0.3,1.1,0.6,2.2,0.9,3.4C23.5,64.4,23.2,63.2,22.9,62.1z"/>
<path class="st10" d="M19.9,66.7c-0.2-0.2-0.5-0.4-0.7-0.5C19.4,66.4,19.6,66.5,19.9,66.7z"/>
<path class="st10" d="M87.1,70c0.3-0.2,0.5-0.4,0.8-0.6C87.6,69.6,87.3,69.8,87.1,70z"/>
<path class="st10" d="M90.4,68.4c0.3-0.2,0.5-0.4,0.8-0.6C90.9,68,90.6,68.2,90.4,68.4z"/>
<path class="st10" d="M88.4,69.4c0.3-0.2,0.5-0.4,0.8-0.6C88.9,69,88.6,69.2,88.4,69.4z"/>
<path class="st10" d="M22.3,69.4c0.3,0.2,0.5,0.4,0.8,0.5C22.9,69.8,22.6,69.6,22.3,69.4z"/>
<path class="st10" d="M19,67.8c0.3,0.2,0.5,0.4,0.8,0.6C19.6,68.2,19.3,68,19,67.8z"/>
<path class="st10" d="M21,68.8c0.3,0.2,0.5,0.4,0.8,0.6C21.5,69.2,21.3,69,21,68.8z"/>
<path class="st8" d="M81.5,40.4c0.3,0.1,0.6,0.2,1,0.4C82.1,40.7,81.8,40.5,81.5,40.4z"/>
<path class="st17" d="M61.4,16c-4.2,0-8.4,0-12.5,0c-0.6-0.9-1.2-1.8-1.8-2.7c-0.2-0.3-0.1-0.8,0-1c0.6-1,1.4-1.9,2-2.9
	c1.4,0,2.8,0,4.2,0c1.6,0.1,3.2,0.3,4.7,0.2c1,0,2-0.4,3-0.6c0.1,0.1,0.2,0.2,0.3,0.4c0.1,0.1,0.2,0.2,0.3,0.3
	c0.1,0.1,0.1,0.2,0.2,0.3C63.9,12.1,63,14.1,61.4,16z"/>
<path class="st0" d="M25.8,14.7c0.3,0.1,0.7,0.2,1,0.3C26.4,14.9,26.1,14.8,25.8,14.7z"/>
<path class="st8" d="M61.6,9.7c-0.1-0.1-0.2-0.2-0.3-0.3c0.1,0,0.2,0,0.2,0C61.6,9.5,61.6,9.6,61.6,9.7z"/>
<path class="st18" d="M66.7,62.8c0.4,0.7,0.8,1.3,1.1,2c0.5,2.5,1,5,1.6,7.5c-0.1,0.3-0.2,0.6-0.5,1.2c-1-1.1-1.8-2.1-2.6-3
	c-1,2-2.1,4-3.2,6.1c0.6,0.3,1.3,0.6,2,1.1c0.2,0.2,0.4,0.7,0.4,1c0,0.2-0.5,0.4-0.7,0.4c-2.5,0.1-4.9,0.1-7.4,0.1
	c-1.7,0-3.4,0.1-5.1,0.1c-2.3,0-4.7-0.1-7-0.2c-0.3,0-0.7-0.3-0.7-0.5c0-0.3,0.1-0.8,0.4-1c0.6-0.4,1.3-0.7,2-1.1
	c-1.1-2-2.1-4.1-3.2-6.2c-0.5,0.6-1.2,1.4-1.8,2.2c-0.4,0.5-0.9,0.8-1.2-0.1c0.4-2.2,0.7-4.4,1.1-6.6c0.1-0.5,0.2-1.1,0.3-1.6
	c0-0.1,0-0.2,0-0.3c0.1-0.1,0.2-0.3,0.3-0.4c0-0.2,0-0.4,0.1-0.6c0.2-0.1,0.5-0.3,0.7-0.4c0.5-0.2,2.2-0.2,2.9,0
	c0.4,0.1,0.8,0,1.1,0c5.2,0,10.5,0,15.7,0c0.9,0,1.8-0.4,2.8-0.6C66,62.3,66.3,62.6,66.7,62.8z"/>
<path class="st2" d="M70.3,84.9c-0.1-0.1-0.1-0.1-0.3-0.3C70.2,84.8,70.3,84.9,70.3,84.9C70.3,84.9,70.3,84.9,70.3,84.9z"/>
<path class="st19" d="M66.7,62.8c-0.4-0.3-0.7-0.5-0.9-0.6c-1,0.2-1.9,0.6-2.8,0.6c-5.2,0.1-10.5,0-15.7,0c-0.4,0-0.8,0-1.1,0
	c-0.7-0.2-2.4-0.2-2.9,0c1.6-2.7,1-5.7,1.5-8.6c0.9-2.5,1.9-4.9,4.1-6.7c3.6-3,12-2.9,14.7,2.9c0.7,1.4,1.2,3,1.7,4.4
	c0,0.2,0,0.5,0,0.7c0.1,1.4,0.3,2.8,0.4,4.2C66.1,60.7,66.4,61.8,66.7,62.8z"/>
<path class="st13" d="M42.2,64.4c-0.1,0.5-0.2,1.1-0.3,1.6C41.2,65.5,41.3,65.1,42.2,64.4z"/>
<path class="st13" d="M42.6,63.8c-0.1,0.1-0.2,0.3-0.3,0.4C42.4,64.1,42.5,63.9,42.6,63.8z"/>
<path class="st12" d="M65.8,59.7c-0.1-1.4-0.3-2.8-0.4-4.2C66.6,56.8,65.8,58.3,65.8,59.7z"/>
</svg>
